<svg xmlns="http://www.w3.org/2000/svg" width="512" height="512" viewBox="0 0 512 512" version="1.1" color="white">
	<path d="M 229 29.511 C 171.106 37.462, 118.001 65.951, 82.801 107.942 C 71.527 121.390, 60.016 139.136, 51.950 155.500 C 9.583 241.451, 25.073 339.349, 91.953 408.323 C 120.863 438.137, 152.401 457.093, 188.859 466.568 C 200.232 469.523, 205.878 469.622, 213.500 467 C 225.262 462.953, 238.266 465.010, 248.739 472.574 C 257.250 478.721, 257.002 478.697, 263.801 474.055 C 277.694 464.572, 290.480 461.965, 302.988 466.066 C 309.541 468.214, 310.620 468.301, 317.061 467.196 C 326.267 465.618, 344.124 459.801, 356.258 454.428 C 420.857 425.824, 469.582 359.205, 481.641 283 C 484.254 266.492, 484.037 236.733, 481.190 221 C 473.839 180.376, 455.263 139.634, 430.809 110.500 C 385.666 56.719, 324.194 27.708, 256.216 28.103 C 246.472 28.160, 234.225 28.793, 229 29.511 M 295.500 56.996 C 296.600 57.530, 304.700 60.938, 313.500 64.569 C 334.006 73.032, 349.808 80.551, 360.231 86.804 C 364.779 89.533, 370.471 92.757, 372.880 93.969 L 377.259 96.173 375.228 93.336 C 364.428 78.255, 336.959 62.723, 313.812 58.611 C 302.347 56.574, 292.918 55.742, 295.500 56.996 M 180 61.548 C 171.100 63.839, 149.373 75.283, 139.784 82.731 C 134.990 86.454, 131.053 90.048, 131.034 90.717 C 131.014 91.435, 135.004 90.056, 140.750 87.361 C 162.675 77.078, 172.240 72.969, 187 67.498 C 195.525 64.337, 202.928 61.357, 203.450 60.876 C 204.996 59.451, 186.033 59.994, 180 61.548 M 282.007 81.194 C 274.758 82.018, 264.710 86.551, 264.194 89.231 C 264.017 90.152, 265.646 92.839, 267.814 95.203 C 273.411 101.304, 277.573 108.248, 280.216 115.891 C 283.466 125.296, 283.469 144.138, 280.221 155 L 277.979 162.500 280.162 164.300 C 281.362 165.290, 283.505 165.965, 284.922 165.800 C 287.316 165.521, 287.692 164.734, 290.191 154.778 C 291.671 148.881, 293.746 142.131, 294.802 139.778 C 296.899 135.106, 305.866 122.532, 306.587 123.253 C 306.833 123.499, 305.436 126.356, 303.482 129.600 C 297.941 138.802, 292.431 158.245, 293.168 165.991 C 293.447 168.919, 294.184 169.851, 297.784 171.831 C 300.141 173.127, 302.641 173.968, 303.340 173.700 C 304.806 173.137, 316.811 147.487, 319.882 138.358 C 323.216 128.447, 324.262 119.400, 322.992 111.450 C 321.530 102.297, 319.110 97.101, 313.534 91.140 C 305.951 83.033, 295.325 79.681, 282.007 81.194 M 217.251 82.481 C 205.415 85.813, 194.931 94.111, 190.951 103.298 C 188.176 109.705, 187.235 124.111, 188.895 134.782 C 190.311 143.883, 195.003 158.472, 199.257 167 C 202.321 173.141, 202.711 173.517, 206.320 173.815 C 211.079 174.206, 213 172.685, 213 168.523 C 213 166.745, 210.755 157.078, 208.011 147.041 C 202.823 128.063, 200.499 116.992, 201.242 114.788 C 201.480 114.080, 203.064 117.775, 204.761 123 C 210.478 140.605, 216.971 159.043, 218.480 161.960 C 220.142 165.176, 222.934 166.473, 226.057 165.482 C 229.521 164.383, 230.161 160.703, 228.904 149.113 C 227.410 135.333, 228.237 124.125, 231.455 114.540 C 234.411 105.732, 235.463 103.893, 242.692 94.889 C 245.611 91.252, 248 87.965, 248 87.584 C 248 87.202, 245.415 85.747, 242.255 84.349 C 235.050 81.163, 224.684 80.388, 217.251 82.481 M 253.028 100.126 C 245.242 107.912, 240.409 123.588, 241.272 138.254 C 242.202 154.049, 245.942 160.831, 254.188 161.670 C 259.851 162.247, 264.774 159.653, 267.264 154.779 C 273.848 141.897, 273.535 122.882, 266.510 109.020 C 263.935 103.938, 258.430 97, 256.973 97 C 256.523 97, 254.747 98.407, 253.028 100.126 M 163 103.674 C 144.611 111.080, 125.316 128.396, 119.385 142.816 C 115.523 152.207, 116.507 157.536, 122.262 158.400 C 124.043 158.667, 129.100 159.412, 133.500 160.055 C 147.677 162.128, 156.146 165.787, 174.039 177.573 C 184.158 184.238, 187.519 185.605, 191.039 184.488 C 192.917 183.891, 193.141 183.284, 192.639 180.147 C 192.318 178.141, 190.189 171.550, 187.908 165.500 C 180.298 145.315, 178.711 137.542, 178.599 119.905 C 178.489 102.621, 177.970 100.980, 172.628 101.028 C 170.907 101.044, 166.575 102.234, 163 103.674 M 335.186 104.491 C 332.677 107.680, 332.254 109.996, 331.621 124 C 331.052 136.608, 328.116 146.048, 318.874 164.987 C 311.874 179.333, 311.872 180.394, 318.837 185.706 C 326.243 191.355, 326.724 191.247, 336.152 181.823 C 348.213 169.767, 361.505 163.332, 381.374 159.929 C 385.173 159.278, 389.020 157.980, 389.972 157.028 C 394.689 152.311, 392.376 139.153, 385.147 129.578 C 376.129 117.635, 353.621 103.131, 342.698 102.225 C 337.783 101.817, 337.135 102.013, 335.186 104.491 M 95.116 129.884 C 85.994 139.006, 75.741 158, 79.939 158 C 80.652 158, 95.998 135.960, 101.350 127.250 C 103.100 124.402, 98.768 126.232, 95.116 129.884 M 434 152.764 C 434 153.376, 436.692 160.475, 439.983 168.540 C 451.316 196.317, 456.869 217.772, 460.782 248.895 C 461.764 256.707, 462.890 262.777, 463.284 262.383 C 464.650 261.017, 464.044 229.516, 462.476 220.381 C 458.722 198.514, 451.134 175.694, 443.596 163.604 C 439.168 156.503, 434 150.665, 434 152.764 M 124 171.662 C 124 177.932, 141.490 195.461, 154.151 201.881 C 164.339 207.047, 170.299 208.179, 171.868 205.246 C 175.090 199.226, 164.265 184.834, 150.749 177.169 C 140.244 171.211, 124 167.867, 124 171.662 M 247.021 172.100 C 226.945 174.493, 208.744 183.838, 194.777 198.924 C 180.284 214.578, 175.132 232.805, 179.447 253.163 C 181.105 260.988, 186.355 272.645, 191.082 279 L 194.429 283.500 195.681 271.746 C 197.792 251.938, 203.125 240.065, 215.524 227.576 C 223.683 219.357, 231.622 214.782, 242.596 211.975 C 252.347 209.482, 258.655 209.482, 268.415 211.978 C 279.255 214.751, 285.330 218.300, 294.091 226.980 C 306.318 239.094, 312.559 254.854, 311.818 271.752 C 311.643 275.741, 311.795 279.004, 312.155 279.002 C 312.516 279.001, 315.050 275.962, 317.787 272.250 C 337.392 245.658, 336.636 220.429, 315.568 198.199 C 297.097 178.709, 271.938 169.129, 247.021 172.100 M 371.942 173.265 C 363.294 176.242, 355.224 181.192, 347.457 188.282 C 337.449 197.418, 334.932 202.818, 338.975 206.478 C 345.753 212.612, 372.456 197.603, 380.253 183.276 C 381.736 180.552, 383.073 176.789, 383.224 174.912 C 383.466 171.919, 383.193 171.470, 381 171.254 C 379.625 171.118, 375.549 172.023, 371.942 173.265 M 398.239 173.250 C 397.686 173.938, 395.880 177.200, 394.225 180.500 C 385.591 197.716, 374.430 207.760, 353.750 216.925 C 348.046 219.453, 347 220.299, 347 222.387 C 347 225.104, 349.348 228, 351.550 228 C 352.324 228, 360.055 226.114, 368.729 223.810 C 384.466 219.628, 384.539 219.619, 402.500 219.619 C 417.966 219.620, 421.481 219.918, 427.466 221.735 C 431.297 222.899, 434.785 223.633, 435.216 223.367 C 437.701 221.830, 433.778 208.250, 427.200 195.621 C 419.532 180.900, 402.604 167.824, 398.239 173.250 M 104.439 175.922 C 96.736 180.340, 88.761 189.628, 83.531 200.272 C 79.271 208.941, 74.957 222.290, 76.059 223.392 C 76.332 223.665, 79.918 222.949, 84.027 221.801 C 89.605 220.242, 95.440 219.597, 107.038 219.256 C 124.997 218.729, 133.919 220.017, 149.562 225.397 C 154.976 227.259, 160.023 228.545, 160.779 228.255 C 162.991 227.406, 164.096 223.304, 162.849 220.567 C 162.218 219.182, 159.118 216.754, 155.622 214.907 C 140.438 206.883, 129.073 196.628, 118.893 181.765 C 115.305 176.525, 112.208 173.004, 111.195 173.009 C 110.263 173.015, 107.222 174.325, 104.439 175.922 M 53.296 211.500 C 49.738 224.415, 48.678 232.583, 49.413 241.403 C 49.784 245.850, 50.518 249.918, 51.044 250.444 C 51.652 251.052, 52 250.796, 52 249.739 C 52 248.825, 52.921 240.095, 54.047 230.338 C 55.172 220.581, 55.960 210.551, 55.797 208.049 L 55.500 203.500 53.296 211.500 M 397.332 230.473 C 384.968 232.830, 361.748 238.935, 359.467 240.430 C 357.321 241.836, 357.308 241.992, 358.715 249.181 C 359.611 253.753, 359.991 260.137, 359.729 266.192 C 359.499 271.522, 359.578 276.272, 359.905 276.747 C 360.232 277.221, 364.499 278.584, 369.386 279.774 C 385.089 283.599, 398.778 291.718, 406.572 301.830 C 408.732 304.632, 411.294 307.200, 412.265 307.535 C 416.661 309.052, 427.315 298.678, 432.524 287.810 C 437.567 277.287, 439.278 268.211, 438.854 254.230 C 438.414 239.715, 436.885 236.559, 428.254 232.336 C 423.542 230.031, 421.119 229.537, 413.556 229.341 C 408.575 229.212, 401.274 229.722, 397.332 230.473 M 84.500 232.440 C 75.500 235.762, 72.342 243.940, 73.280 261.500 C 73.937 273.809, 77.416 285.392, 82.749 293.024 C 86.899 298.965, 92.063 303, 95.515 303 C 96.735 303, 100.831 300.526, 104.617 297.502 C 116.029 288.387, 128.713 282.721, 144 279.909 C 147.575 279.251, 150.980 278.341, 151.567 277.886 C 153.030 276.752, 152.554 245.373, 151.046 243.555 C 149.289 241.438, 145.672 240.284, 127 235.883 C 106.746 231.110, 91.458 229.871, 84.500 232.440 M 341.370 255.205 C 341.358 271.112, 341.141 273.207, 338.666 281.307 C 331.092 306.098, 316.157 323.453, 293 334.371 C 278.195 341.352, 272.997 342.458, 255 342.458 C 236.722 342.458, 231.501 341.316, 216.500 334.040 C 199.246 325.671, 186.869 313.451, 178.511 296.533 C 172.936 285.251, 170.023 273.095, 169.099 257.262 C 168.345 244.324, 167.187 241.027, 164.843 245.143 C 163.876 246.840, 163.526 251.557, 163.593 262 C 163.675 274.736, 164.016 277.589, 166.397 285.451 C 173.477 308.830, 188.352 327.584, 209.862 340.249 C 224.594 348.924, 237.021 352, 257.330 352 C 274.168 352, 285.875 349.298, 300.500 342.036 C 330.723 327.028, 349.618 299.486, 351.634 267.500 C 352.568 252.677, 348.699 239.011, 343.341 238.205 C 341.460 237.923, 341.381 238.602, 341.370 255.205 M 291.688 248.500 C 294.354 266.580, 289.298 281.023, 277.029 290.380 C 262.217 301.676, 243.612 300.301, 230.308 286.927 C 221.637 278.211, 217.043 267.064, 216.960 254.540 L 216.920 248.500 215.210 251.500 C 213.917 253.768, 213.509 256.825, 213.536 264.033 C 213.569 272.844, 213.840 274.130, 217.120 281.038 C 223.342 294.139, 234.626 302.742, 248.771 305.167 C 277.027 310.013, 305.128 282.275, 297.642 256.928 C 296.761 253.943, 294.894 249.700, 293.495 247.500 L 290.950 243.500 291.688 248.500 M 357.371 292.557 C 356.449 293.963, 355.483 297.330, 355.222 300.038 C 354.783 304.612, 354.990 305.190, 358.125 308.137 C 359.981 309.883, 364.425 312.704, 368 314.406 C 374.208 317.361, 375.070 317.500, 387.200 317.500 C 401.519 317.500, 403.043 316.918, 400.682 312.351 C 398.695 308.510, 389.606 300.017, 383.920 296.690 C 377.519 292.943, 368.476 290, 363.367 290 C 359.836 290, 358.740 290.467, 357.371 292.557 M 136 292.886 C 128.331 295.365, 122.514 298.455, 115.354 303.851 C 109.447 308.303, 105 313.405, 105 315.729 C 105 318.009, 114.265 320.502, 122.500 320.438 C 133.217 320.354, 140.498 317.496, 147.655 310.563 C 152.468 305.902, 153 304.963, 153 301.128 C 153 296.851, 151.650 293.134, 149.600 291.765 C 147.744 290.526, 141.779 291.017, 136 292.886 M 451.802 299.250 C 445.927 309.046, 444.996 311.387, 445.022 316.297 L 445.044 320.500 447.081 316 C 448.201 313.525, 450.192 310.375, 451.505 309 C 453.966 306.423, 457.273 299.586, 458.398 294.750 C 459.617 289.511, 456.275 291.791, 451.802 299.250 M 56.573 298.500 C 58.167 312.493, 64.884 331.869, 75.117 352 C 82.785 367.084, 82.850 366.309, 75.813 343.630 C 70.540 326.636, 65.373 313.052, 59.597 301 L 56.003 293.500 56.573 298.500 M 160.838 316.266 C 158.824 317.495, 154.086 320.374, 150.309 322.665 C 137.300 330.556, 124.678 332.931, 107.878 330.651 C 101.147 329.738, 100.923 330.049, 102.104 338.666 C 103.912 351.858, 106.780 355.021, 116.899 354.983 C 132.724 354.923, 158.830 342.786, 170.199 330.202 C 174.801 325.107, 175.484 322.836, 173.541 319.080 C 170.707 313.599, 166.675 312.706, 160.838 316.266 M 341.989 318.250 C 338.389 324.154, 339.631 327.357, 347.865 333.401 C 354.663 338.391, 365.298 343.443, 373.064 345.371 C 385.620 348.488, 405.864 346.991, 408.118 342.779 C 409.470 340.253, 408.835 328.435, 407.263 326.863 C 406.406 326.006, 403.992 326.166, 397.608 327.506 C 381.868 330.809, 366.341 327.982, 353.781 319.524 C 350.086 317.036, 346.367 315, 345.517 315 C 344.666 315, 343.079 316.462, 341.989 318.250 M 175.500 339.015 C 166.080 346.094, 152.917 353.116, 144.500 355.553 C 141.200 356.509, 132.473 357.788, 125.107 358.395 C 108.163 359.793, 107.949 360.013, 113.337 370.494 C 117.777 379.131, 131.249 394.017, 141.827 401.977 C 151.044 408.913, 163.542 415, 168.565 415 C 174.782 415, 176.444 413.144, 179.970 402.261 C 184.036 389.712, 192.193 372.986, 199.985 361.219 C 203.832 355.410, 206.013 351.124, 205.815 349.763 C 205.642 348.568, 203.475 346.089, 201 344.254 C 198.525 342.420, 194.250 339.140, 191.500 336.966 C 188.750 334.792, 185.825 333.011, 185 333.008 C 184.175 333.006, 179.900 335.709, 175.500 339.015 M 319.926 339.790 C 315.760 342.931, 311.108 346.400, 309.587 347.500 L 306.824 349.500 311.856 357.196 C 323.006 374.246, 327.488 384.048, 332.034 401.327 C 333.601 407.282, 335.454 412.842, 336.152 413.683 C 338.113 416.047, 346.479 414.900, 354.432 411.178 C 368.503 404.594, 383.538 392.647, 392.640 380.818 C 398.625 373.040, 404 362.631, 404 358.818 C 404 355.867, 403.894 355.798, 400.250 356.393 C 398.188 356.730, 392 357.271, 386.500 357.596 C 367.045 358.745, 352.168 353.247, 334.941 338.542 C 332.014 336.044, 329.143 334.018, 328.560 334.040 C 327.977 334.062, 324.092 336.650, 319.926 339.790 M 436.277 352.237 C 435.124 353.482, 430.765 360.102, 426.590 366.949 C 419.715 378.225, 417.951 382, 419.559 382 C 421.236 382, 428.428 374.976, 432.075 369.778 C 438.788 360.208, 442.240 345.800, 436.277 352.237 M 216.076 355.408 C 214.499 357.308, 199.949 384.487, 191.467 401.377 C 184.453 415.343, 183.707 419.086, 187.081 423.376 C 189.791 426.821, 203.606 433.466, 212.500 435.602 C 225.409 438.702, 241.466 437.457, 245.458 433.047 C 247.176 431.148, 247.082 430.883, 242.514 424.807 C 233.201 412.418, 229.712 402.497, 229.755 388.525 C 229.770 383.561, 230.506 376.435, 231.391 372.688 C 233.324 364.505, 233.429 360.584, 231.750 359.255 C 231.063 358.710, 228.025 357.465, 225 356.487 C 221.975 355.509, 219.010 354.529, 218.410 354.309 C 217.811 354.089, 216.761 354.584, 216.076 355.408 M 294.571 356.571 C 292.116 359.027, 292.549 368.805, 295.504 377.606 C 298.099 385.337, 303.751 397.283, 307.281 402.500 C 309.842 406.284, 307.549 404.100, 301.507 397 C 294.581 388.863, 289.686 378.497, 285.984 364.130 L 284.858 359.759 279.907 360.235 C 277.184 360.497, 274.732 360.935, 274.458 361.209 C 274.184 361.482, 274.866 365.485, 275.973 370.103 C 280.602 389.414, 277.389 408.799, 266.830 425.262 C 263.147 431.005, 263.628 431.948, 271.841 435.087 C 286.155 440.557, 314.029 434.885, 322.539 424.771 C 325.058 421.778, 325.203 421.082, 324.782 414.035 C 324.446 408.404, 323.378 404.100, 320.555 397 C 314.719 382.322, 299.411 355, 297.023 355 C 296.539 355, 295.436 355.707, 294.571 356.571 M 249.891 364.498 C 246.572 366.302, 243.071 374.325, 241.679 383.320 C 240.473 391.109, 241.640 400.292, 244.962 409.165 C 247.169 415.060, 252.359 422, 254.560 422 C 256.293 422, 260.342 415.742, 263.042 408.895 C 269.313 392.983, 266.554 368.924, 257.947 364.473 C 254.468 362.673, 253.241 362.677, 249.891 364.498 M 142.547 427.072 C 148.886 433.603, 163.561 442.769, 170.250 444.377 C 174.254 445.340, 173.805 442.960, 169.195 438.795 C 165.469 435.429, 142.396 423, 139.873 423 C 139.169 423, 140.373 424.833, 142.547 427.072 M 348.191 432.541 C 339.751 435.416, 330.997 439.718, 326.056 443.420 C 322.083 446.395, 322.380 446.470, 330.529 444.548 C 342.778 441.659, 364.502 432.621, 363.417 430.866 C 362.432 429.272, 355.571 430.027, 348.191 432.541" stroke="none" fill="black" fill-rule="evenodd"/>
</svg>